<?xml version="1.0" encoding="UTF-8" standalone="no"?>
<svg
   width="480"
   height="320"
   viewBox="0 0 480 320"
   version="1.1"
   id="svg3"
   sodipodi:docname="tracew.svg"
   inkscape:version="1.3.2 (091e20e, 2023-11-25, custom)"
   xmlns:inkscape="http://www.inkscape.org/namespaces/inkscape"
   xmlns:sodipodi="http://sodipodi.sourceforge.net/DTD/sodipodi-0.dtd"
   xmlns="http://www.w3.org/2000/svg"
   xmlns:svg="http://www.w3.org/2000/svg">
  <defs
     id="defs3" />
  <sodipodi:namedview
     id="namedview3"
     pagecolor="#ffffff"
     bordercolor="#cccccc"
     borderopacity="1"
     inkscape:showpageshadow="0"
     inkscape:pageopacity="1"
     inkscape:pagecheckerboard="0"
     inkscape:deskcolor="#d1d1d1"
     showgrid="false"
     inkscape:zoom="1.6329747"
     inkscape:cx="65.524591"
     inkscape:cy="126.15015"
     inkscape:window-width="1920"
     inkscape:window-height="974"
     inkscape:window-x="-11"
     inkscape:window-y="-11"
     inkscape:window-maximized="1"
     inkscape:current-layer="svg3" />
  <path
     d="m 421.74286,48.687863 c 1.244,0.239 3.044,0.23 4,-0.02 0.956,-0.25 -0.062,-0.446 -2.262,-0.435 -2.2,0.011 -2.982,0.216 -1.738,0.455 m -135,2 c 1.244,0.239 3.044,0.23 4,-0.02 0.956,-0.25 -0.062,-0.446 -2.262,-0.435 -2.2,0.011 -2.982,0.216 -1.738,0.455 m -262.349997,1.187 c -1.699,0.433 -5.099,2.171 -7.558,3.862 -2.458,1.691 -5.061,3.788 -5.784,4.66 -0.723,0.871 -1.055958,1.559726 -0.575958,1.577726 -0.2482,-0.174368 -0.5583373,0.101579 -1.0106001,1.020358 -0.4728049,0.960511 -1.8584418,3.376916 -2.8824418,5.686916 -1.75,3.95 -1.861,7.932 -1.866,66.499997 -0.003,34.265 0.323,63.948 0.725,65.964 0.402,2.016 1.799,4.669 3.105,5.896 1.305,1.226 2.1569999,2.58 1.8919999,3.008 -0.264,0.428 1.437,2.294 3.781,4.147 2.344,1.852 5.387,3.911 6.762,4.574 1.375,0.663 5.65,1.62 9.5,2.126 3.85,0.506 10.15,0.575 14,0.153 3.85,-0.422 8.657,-1.504 10.682,-2.403 2.025,-0.9 3.814905,-2.08086 4.338137,-2.55218 1.000653,-0.47131 0.840042,-0.42212 1.365863,-0.68482 0.432216,-0.21593 1.579,-0.976 2.597,-2.733 1.017,-1.758 3.19,-4.749 4.829,-6.647 1.746,-2.022 2.355905,-4.14483 1.899411,-3.86927 0.278527,0.0673 0.239663,-0.72136 0.603611,-2.12873 0.526,-0.984 0.346673,-2.20596 0.114494,-2.61137 0.418474,0.1697 -0.02632,-0.34395 0.193811,-0.43963 0.686911,-0.29859 0.902673,-3.427 1.091673,-10.135 l 0.285,-10.136 4.759,3.636 c 2.617,1.999 5.520974,3.22026 6.191,3.635 0.787,0.48714 1.304046,0.61238 2.05,1 0.573768,0.29815 4.135,1 8.433,1 4.299,0 9.559997,-0.618 11.690997,-1.372 2.132,-0.755 6.212,-2.753 9.068,-4.44 l 5.192,-3.068 0.394,11.69 c 0.217,6.43 0.601,12.436 0.853,13.347 0.253,0.912 1.481,3.612 2.729,6 1.249,2.389 4.032,5.57 6.184,7.069 2.153,1.499 5.161,3.023 6.685,3.388 1.524,0.364 3.331,1.103 4.015,1.641 0.684,0.539 6.309,1.003 12.5,1.032 10.261,0.048 11.763,-0.189 16.994,-2.684 3.448,-1.645 7.103,-4.406 9.159,-6.92 1.882,-2.301 4.362,-6.981 5.512,-10.401 2.028,-6.031 2.091,-8.011 2.091,-65.569 0,-49.728997 -0.242,-60.164997 -1.494,-64.378997 -0.821,-2.766 -3.013,-7.02 -4.87,-9.452 -1.865,-2.442 -5.787,-5.752 -8.757,-7.389 -4.991,-2.752 -6.269,-2.992 -17.724,-3.335 -8.152,-0.244 -12.47355,0.40182 -13.45,0.737 -0.99074,0.340084 -2.03455,0.645715 -3.001,1.105 -0.94113,0.447252 -3.315,0.971 -5.05,2.157 -1.735,1.186 -4.841,3.752 -6.904,5.703 -2.062,1.95 -3.54325,3.982355 -3.75,4.41 -0.22964,0.475 -2.33647,1.985168 -3.79719,4.393905 -2.18892,1.911179 -3.18981,4.347095 -3.19381,4.971095 -0.57911,0.624 -1.47846,1.450989 -2.509,2.773 -1.01067,1.296524 -1.61556,2.486062 -2.5,2.975 -0.74178,0.410068 -1.46591,2.786084 -3.598,5.152 -1.93075,2.142488 -4.618,5.431 -5.864,7.405 -1.245997,1.974 -3.067997,4.255 -4.046997,5.068 -1.592,1.32 -1.9,1.278 -2.886,-0.398 -0.608,-1.032 -2.23,-3.037 -3.605,-4.455 -1.375,-1.419 -2.387,-2.934 -2.25,-3.367 0.138,-0.433 -0.124,-0.788 -0.58,-0.788 -0.457,0 -2.347,-2.138 -4.199,-4.75 -1.852,-2.612 -3.618,-4.975 -3.923,-5.25 -0.306,-0.275 -2.918,-3.65 -5.806,-7.5 -2.888,-3.85 -6.809,-8.627 -8.715,-10.615 -1.905,-1.988 -3.55919,-3.652221 -3.30119,-4.001221 -0.263684,-0.119358 -0.03637,0.318337 -0.0069,-0.04004 -0.345,0.253 -2.553905,-1.120737 -5.096905,-2.585737 -4.211,-2.426 -5.689,-2.685 -16.622,-2.907 -6.6,-0.134 -13.39,0.11 -15.088,0.543 m 403.856992,9.799 c 0.97301,0.254 2.323,0.237 3,-0.037 0.67701,-0.274 -0.119,-0.481 -1.769,-0.461 -1.64999,0.02 -2.204,0.244 -1.231,0.498 m -396.768992,6.178 c -1.65,0.43 -4.051,1.346 -5.335,2.036 -1.284,0.69 -2.971,2.778 -3.75,4.641 -1.165,2.789 -1.415,13.645 -1.415,61.451995 0,47.829 0.25,58.662 1.416,61.454 0.78,1.865 2.594,4.162 4.032,5.104 1.554,1.018 5.445,1.916 9.587,2.212 5.024,0.36 8.159,0.046 11.22,-1.123 2.337,-0.893 4.923,-2.641 5.747,-3.885 1.234,-1.863 1.586,-8.49 1.998,-37.61 l 0.5,-35.347 5.416,7.759 c 2.978,4.267 9.341,13.022 14.138,19.454 7.074,9.485 9.606,12.123 13.395,13.957 3.636,1.76 5.599,2.115 8.861,1.599 2.304,-0.364 5.764992,-1.702 7.689992,-2.974 2.03401,-1.343 8.438,-9.18 15.28701,-18.706 6.482,-9.017 12.38199,-17.181 13.10999,-18.144 0.728,-0.963 1.611,-1.75 1.963,-1.75 0.352,0 0.64,15.089 0.64,33.532 0,26.213 0.301,34.252 1.377,36.828 0.887,2.122 2.577,3.802 4.75,4.718 1.989,0.838 6.728,1.422 11.55,1.422 6.733,0 8.675,-0.37 11,-2.094 1.553,-1.151 3.36,-3.626 4.017,-5.5 0.869,-2.481 1.208,-19.164 1.248,-61.406 0.05,-53.283995 -0.087,-58.283995 -1.694,-61.498995 -0.961,-1.924 -3.098,-4.172 -4.748,-4.994 -1.875,-0.935 -5.814,-1.488 -10.505,-1.476 -5.534,0.014 -8.475,0.538 -11.197,1.994 -2.685,1.436 -8.884,8.792 -22.733,26.975 -10.472,13.749995 -20.118992,26.349995 -21.437992,27.999995 -1.318,1.65 -2.597,2.775 -2.842,2.5 -0.245,-0.275 -7.584,-9.95 -16.307,-21.5 -8.724,-11.549995 -18.306,-24.083995 -21.295,-27.852995 -3.397,-4.286 -6.767,-7.411 -8.995,-8.342 -1.959,-0.818 -5.84,-1.652 -8.625,-1.852 -2.785,-0.199 -6.413,-0.011 -8.063,0.418 m 367.731992,3.129 c 0,1.925 0.206,2.713 0.457,1.75 0.252,-0.963 0.252,-2.537 0,-3.5 -0.251,-0.963 -0.457,-0.175 -0.457,1.75 m -11.896,69.999995 c 0,4.125 0.177,5.813 0.392,3.75 0.216,-2.062 0.216,-5.437 0,-7.5 -0.215,-2.062 -0.392,-0.375 -0.392,3.75 m 51.916,6.5 c 0.011,2.2 0.216,2.982 0.455,1.738 0.239,-1.244 0.23,-3.044 -0.02,-4 -0.25,-0.956 -0.446,0.062 -0.435,2.262 m -52.057,12 c 0.02,1.65 0.244,2.204 0.498,1.231 0.254,-0.973 0.237,-2.323 -0.037,-3 -0.274,-0.677 -0.481,0.119 -0.461,1.769"
     stroke="none"
     fill="#e1c08c"
     fill-rule="evenodd"
     id="path1"
     sodipodi:nodetypes="cssccsscccccsccscccsssccscccccscccsssccccccccccccssccccssscsccssssccccsscscccccccssccscscsccsccccccccsssccscccccccccsccccccccccccccssccssc" />
  <path
     d="M 410.950 49 C 398.380 49.404, 394.887 49.837, 392.721 51.259 C 391.247 52.227, 389.295 54.462, 388.383 56.227 C 386.868 59.155, 386.779 64.998, 387.355 123.270 C 387.784 166.612, 388.339 187.766, 389.086 189.160 C 389.691 190.290, 393.587 196.454, 397.744 202.857 C 401.901 209.261, 406.844 216.805, 408.730 219.623 C 410.615 222.441, 413.135 225.236, 414.329 225.833 C 415.523 226.431, 417.175 226.992, 418 227.079 C 418.825 227.166, 420.717 227.184, 422.203 227.118 C 423.979 227.041, 426.401 225.485, 429.258 222.586 C 431.652 220.158, 437.982 211.142, 443.326 202.550 L 453.042 186.927 452.856 148.714 C 452.754 127.696, 452.376 98.456, 452.016 83.735 C 451.363 56.970, 451.363 56.970, 448.052 53.553 C 445.892 51.325, 443.135 49.759, 440.120 49.048 C 437.579 48.449, 433.475 48.080, 431 48.229 C 428.525 48.378, 419.503 48.725, 410.950 49 M 277 51.731 C 276.175 52.046, 272.997 53.995, 269.937 56.062 C 266.878 58.129, 263.172 61.397, 261.702 63.324 C 260.232 65.251, 255.700 73.729, 251.631 82.164 C 247.562 90.599, 240.531 105.150, 236.007 114.500 C 231.483 123.850, 225.528 136.225, 222.773 142 C 220.018 147.775, 214.873 158.516, 211.338 165.869 C 207.804 173.223, 204.257 181.755, 203.456 184.829 C 202.655 187.904, 202 191.144, 202 192.029 C 202 192.913, 202.696 195.980, 203.546 198.843 C 204.696 202.715, 206.491 205.448, 210.556 209.512 C 213.561 212.518, 218.193 216.077, 220.848 217.423 C 223.504 218.769, 228.426 220.796, 231.786 221.928 C 236.813 223.621, 238.966 223.840, 243.932 223.161 C 248.190 222.579, 251.370 221.372, 254.734 219.061 C 257.355 217.261, 261.016 213.759, 262.868 211.279 C 264.720 208.800, 267.777 203.436, 269.660 199.360 L 273.084 191.948 288.246 192.224 L 303.408 192.500 308.454 202.206 C 311.229 207.544, 314.400 212.956, 315.500 214.233 C 316.600 215.510, 318.895 217.537, 320.599 218.738 C 322.304 219.939, 325.888 221.665, 328.564 222.573 C 331.902 223.707, 335.032 224.037, 338.536 223.625 C 341.345 223.295, 345.186 222.287, 347.072 221.386 C 348.957 220.485, 352.518 218.792, 354.983 217.624 C 357.449 216.456, 362.182 212.800, 365.501 209.500 C 369.537 205.487, 371.943 202.137, 372.767 199.384 C 373.445 197.120, 374 193.478, 374 191.291 C 374 189.103, 373.139 184.810, 372.086 181.750 C 371.033 178.690, 366.493 168.607, 361.996 159.343 C 357.500 150.080, 349.053 132.600, 343.225 120.500 C 337.398 108.400, 328.905 90.982, 324.352 81.794 C 319.744 72.493, 314.417 63.254, 312.335 60.949 C 310.278 58.672, 306.323 55.506, 303.547 53.914 C 298.870 51.231, 297.767 51.024, 288.500 51.088 C 283 51.127, 277.825 51.416, 277 51.731 M 411.683 61.780 L 398.867 62.061 399.055 69.780 C 399.158 74.026, 399.443 78.287, 399.689 79.250 C 400.094 80.841, 401.897 81, 419.567 81 L 439 81 439 71.185 L 439 61.370 431.750 61.435 C 427.762 61.471, 418.733 61.626, 411.683 61.780 M 281.500 68.835 C 279.300 69.881, 276.522 71.808, 275.326 73.118 C 274.130 74.428, 267.990 86.300, 261.682 99.500 C 255.374 112.700, 246.289 131.600, 241.493 141.500 C 236.697 151.400, 229.849 165.575, 226.274 173 C 222.699 180.425, 219.556 188.300, 219.289 190.500 C 218.923 193.524, 219.301 195.129, 220.839 197.077 C 221.957 198.494, 225.552 201.081, 228.826 202.827 C 233.441 205.286, 236.019 206, 240.286 206 C 245.248 206, 246.075 205.678, 248.646 202.748 C 250.216 200.960, 253.944 194.210, 256.930 187.748 L 262.361 176 287.961 176 L 313.561 176 320.031 189.107 C 323.878 196.900, 327.701 203.229, 329.462 204.721 C 332.005 206.873, 333.096 207.149, 337.159 206.668 C 339.762 206.359, 343.379 205.355, 345.196 204.435 C 347.013 203.516, 349.963 201.669, 351.751 200.330 C 353.539 198.992, 355.702 196.542, 356.558 194.887 C 357.837 192.414, 357.906 191.245, 356.944 188.330 C 356.300 186.379, 344.311 161.094, 330.301 132.141 C 316.292 103.189, 303.873 77.790, 302.703 75.701 C 301.533 73.611, 299.155 71.023, 297.418 69.949 C 295.681 68.876, 292.289 67.758, 289.880 67.466 C 286.764 67.088, 284.346 67.483, 281.500 68.835 M 400 130.479 C 400 173.957, 400 173.957, 402.421 172.854 C 404.439 171.935, 405.381 172.135, 408.079 174.057 C 411.317 176.362, 411.317 176.362, 415.218 174.117 C 419.118 171.872, 419.118 171.872, 422.655 173.959 C 426.191 176.045, 426.191 176.045, 429.752 173.844 C 433.180 171.726, 433.425 171.707, 436.292 173.353 C 437.930 174.293, 439.440 174.893, 439.646 174.687 C 439.853 174.480, 439.719 154.666, 439.348 130.656 L 438.675 87 419.337 87 L 400 87 400 130.479 M 282.145 135.583 C 279.315 141.404, 277 146.326, 277 146.521 C 277 146.716, 281.951 147.016, 288.002 147.188 C 294.053 147.359, 299.003 147.200, 299.002 146.833 C 299.001 146.466, 296.685 141.404, 293.855 135.583 C 291.025 129.762, 288.390 125, 288 125 C 287.610 125, 284.975 129.762, 282.145 135.583 M 401.019 181.477 C 400.009 182.694, 401.596 185.769, 410.079 199.027 C 416.835 209.586, 420.622 214.654, 421.115 213.800 C 421.527 213.085, 425.936 205.975, 430.912 198 C 439.940 183.529, 439.954 183.496, 437.868 181.750 C 436.719 180.787, 434.758 180, 433.512 180 C 432.265 180, 430.685 180.675, 430 181.500 C 429.315 182.325, 427.996 183, 427.069 183 C 426.141 183, 424.509 182.339, 423.441 181.532 C 422.374 180.724, 420.600 180.064, 419.500 180.064 C 418.400 180.064, 416.626 180.724, 415.559 181.532 C 414.491 182.339, 412.665 183, 411.500 183 C 410.335 183, 408.509 182.339, 407.441 181.532 C 406.374 180.724, 404.768 180.049, 403.872 180.032 C 402.977 180.014, 401.693 180.664, 401.019 181.477"
     stroke="none"
     fill="#8dade2"
     fill-rule="evenodd"
     id="path2" />
  <path
     style="fill:#e1c08c;fill-opacity:1;stroke:#e1c08c;stroke-width:0.1;stroke-linecap:round;stroke-linejoin:round;stroke-dasharray:none;stroke-opacity:1"
     d="m 10.855942,210.62172 c -0.257868,-0.10308 -0.548062,-0.33705 -0.8874841,-0.71531 -0.4234736,-0.47192 -0.7420295,-0.94821 -1.1049812,-1.6521 -0.4852463,-0.94108 -0.7547641,-1.676 -0.6441211,-1.75641 0.086386,-0.0628 0.4920064,0.30962 1.1528226,1.05835 0.7967208,0.90272 1.2759648,1.52907 1.5805618,2.06573 0.379869,0.66928 0.409081,1.06624 0.07672,1.04254 -0.04645,-0.004 -0.120439,-0.0216 -0.173515,-0.0429 z"
     id="path4" />
  <path
     style="fill:#ffffff;stroke:#ffffff;stroke-width:0.0216509;stroke-linecap:round;stroke-linejoin:round"
     d="m 33.541303,204.38127 c -4.497814,-0.614 -6.70134,-1.4367 -8.318028,-3.10558 -1.2566,-1.29716 -2.617174,-3.44218 -2.937192,-4.63064 -0.785745,-2.91803 -1.018305,-11.48308 -1.186056,-43.68158 -0.14259,-27.36917 0.161204,-67.347005 0.551163,-72.530451 0.385984,-5.130615 0.86198,-6.628213 2.84163,-8.940464 1.479227,-1.727751 5.452484,-3.401989 9.163152,-3.861139 3.744302,-0.463312 9.620248,0.129321 13.246277,1.335985 2.065031,0.687198 3.851928,1.962348 6.46717,4.615043 2.992857,3.035718 7.882784,9.337545 32.363861,41.708496 9.121541,12.06127 9.03691,11.95681 9.487186,11.70962 1.117594,-0.61352 2.02172,-1.75605 19.203394,-24.26713 15.41698,-20.199005 20.33407,-26.344027 24.3151,-30.387198 2.26077,-2.296065 3.1526,-2.922091 5.14844,-3.614014 3.79279,-1.314894 12.84583,-1.473095 17.49179,-0.305667 2.02116,0.507874 2.73792,0.938296 4.46655,2.682224 2.50049,2.522611 2.99371,3.805503 3.50793,9.12429 0.4019,4.157124 0.40333,97.668075 0.002,106.899095 -0.35874,8.24365 -0.48753,9.2163 -1.4672,11.08061 -1.71749,3.2684 -4.37507,5.29074 -7.68663,5.84931 -2.25454,0.38028 -12.43172,0.16779 -15.03232,-0.31385 -4.37125,-0.80958 -7.11839,-3.04739 -7.99894,-6.51592 -0.63159,-2.48783 -0.76949,-6.43915 -0.97073,-27.81417 -0.3563,-37.84373 -0.44168,-41.56969 -0.95259,-41.56969 -0.53609,0 -2.59552,2.62782 -8.57821,10.94579 -11.15444,15.50846 -15.92975,21.74504 -19.61607,25.61874 -2.07361,2.17901 -3.73458,3.18256 -7.25929,4.38604 -1.813053,0.61904 -2.316153,0.69811 -4.529448,0.71188 -2.790474,0.0174 -3.674079,-0.19843 -6.64128,-1.62186 -3.648236,-1.75015 -6.293482,-4.44769 -12.725413,-12.97699 -4.715893,-6.25369 -11.329977,-15.36 -16.261153,-22.38847 -2.227635,-3.17508 -4.092255,-5.73086 -4.1436,-5.67951 -0.05135,0.0513 -0.182313,6.071 -0.291042,13.37701 -0.825693,55.48286 -0.930626,57.80142 -2.711792,59.91821 -1.427176,1.6961 -5.334666,3.65956 -8.480916,4.26154 -2.004502,0.38352 -7.59111,0.37308 -10.467373,-0.0196 z"
     id="path3" />
  <path
     style="fill:#ffffff;stroke:#ffffff;stroke-width:0.0612379;stroke-linecap:round;stroke-linejoin:round"
     d="m 330.70272,205.06815 c -2.87779,-2.42151 -5.98685,-7.43142 -12.01699,-19.36411 l -5.18351,-10.25735 -25.54884,0.002 -25.54882,0.002 -5.93534,12.22108 c -4.12844,8.5006 -6.73092,13.08417 -8.54866,15.05619 l -2.61333,2.83512 -5.53606,-0.2295 c -4.83325,-0.20036 -6.07619,-0.49885 -9.7906,-2.35115 -2.33999,-1.16692 -5.64684,-3.40136 -7.34855,-4.96542 -2.94728,-2.7089 -3.08973,-2.9848 -3.00362,-5.81761 0.0497,-1.63561 0.84665,-4.90283 1.77097,-7.26049 1.85448,-4.73028 35.06279,-74.14884 45.76311,-95.663105 3.72141,-7.482348 7.55299,-14.558769 8.51461,-15.72538 2.30632,-2.797966 8.50479,-5.882166 11.82168,-5.882166 4.06556,0 8.72429,1.689892 11.49077,4.168121 2.13112,1.909076 4.35769,5.986907 14.27548,26.144657 12.8648,26.147513 38.78125,80.084093 41.83245,87.060513 2.50134,5.71919 2.48167,7.94484 -0.10011,11.32978 -3.96506,5.19856 -11.41059,9.2134 -18.59324,10.02603 -3.39073,0.38362 -3.77177,0.2948 -5.7014,-1.32887 z m -31.24921,-58.11992 c 0,-0.58928 -7.9504,-16.99823 -9.59852,-19.81054 l -1.60379,-2.73666 -1.23241,1.48694 c -0.67782,0.81781 -3.27591,5.72931 -5.77354,10.91444 -3.51581,7.29887 -4.358,9.54362 -3.72999,9.94179 0.8742,0.55425 21.93825,0.75015 21.93825,0.20403 z"
     id="path5" />
  <path
     style="fill:#ffffff;stroke:#ffffff;stroke-width:0.0612379;stroke-linecap:round;stroke-linejoin:round"
     d="m 410.06888,174.96521 c -0.16366,-0.26481 -1.52805,-1.09601 -3.03196,-1.8471 -2.11341,-1.05549 -3.08157,-1.23363 -4.2631,-0.78442 -1.39101,0.52887 -1.56243,0.41255 -1.90321,-1.29134 -0.20598,-1.02991 -0.37451,-20.30134 -0.37451,-42.82542 V 87.264059 h 18.98376 18.98376 l 0.0159,5.970698 c 0.009,3.283885 0.27636,22.613053 0.59466,42.953703 0.3183,20.34065 0.44763,37.19511 0.28741,37.45435 -0.16022,0.25925 -1.63912,-0.0981 -3.28644,-0.79406 l -2.99514,-1.26541 -3.47396,1.96059 -3.47395,1.96058 -2.79089,-1.55986 c -3.46676,-1.93761 -5.32473,-1.94045 -8.45423,-0.0129 -2.47929,1.52703 -4.27505,1.91223 -4.81814,1.0335 z"
     id="path6" />
  <path
     style="fill:#ffffff;stroke:#ffffff;stroke-width:0.0612379;stroke-linecap:round;stroke-linejoin:round"
     d="m 419.33976,211.72378 c -1.96028,-2.07913 -13.69281,-19.98063 -16.30696,-24.88118 -2.32434,-4.35727 -2.37244,-5.0942 -0.39146,-5.9968 1.29449,-0.5898 2.0339,-0.44491 4.75473,0.9317 3.93685,1.99187 4.27375,1.99655 8.10333,0.11272 3.78796,-1.86336 4.17296,-1.86336 7.96093,0 3.7885,1.86363 3.88588,1.86342 6.42998,-0.0136 1.1413,-0.84202 2.73685,-1.53095 3.54567,-1.53095 2.23169,0 5.02764,1.89685 5.02764,3.41088 0,0.92782 -15.932,27.93056 -17.40431,29.49812 -0.0758,0.0807 -0.84958,-0.60823 -1.71955,-1.53094 z"
     id="path7" />
  <path
     style="fill:#ffffff;stroke:#ffffff;stroke-width:0.0612379;stroke-linecap:round;stroke-linejoin:round"
     d="m 400.92493,79.762412 c -0.84625,-0.628915 -1.08969,-2.26763 -1.36455,-9.185691 l -0.33454,-8.420216 12.11724,-0.06276 c 6.66449,-0.03452 15.49299,-0.166783 19.61889,-0.293927 l 7.50165,-0.231172 v 9.479618 9.479618 h -18.25434 c -13.64587,0 -18.51437,-0.193251 -19.28435,-0.765474 z"
     id="path8" />
</svg>
